<?xml version="1.0" encoding="UTF-8"?>
<!DOCTYPE svg PUBLIC "-//W3C//DTD SVG 1.1//EN" "http://www.w3.org/Graphics/SVG/1.1/DTD/svg11.dtd">
<svg xmlns="http://www.w3.org/2000/svg" version="1.1" viewBox='0 0 800 800' style="shape-rendering:geometricPrecision; text-rendering:geometricPrecision; image-rendering:optimizeQuality; fill-rule:evenodd; clip-rule:evenodd" xmlns:xlink="http://www.w3.org/1999/xlink">
<g><path style="opacity:0.969" fill="#000000" d="M 730.5,56.5 C 744.059,56.2925 757.392,57.7925 770.5,61C 691.531,85.821 617.531,120.821 548.5,166C 413.304,257.02 296.971,368.187 199.5,499.5C 200.364,501.197 201.697,502.363 203.5,503C 211.769,506.136 219.769,509.802 227.5,514C 228.5,514.667 229.5,514.667 230.5,514C 298.569,415.229 377.569,325.562 467.5,245C 519.286,199.435 575.286,159.769 635.5,126C 657.909,114.211 680.743,103.378 704,93.5C 705.727,93.6465 705.894,94.3131 704.5,95.5C 673.148,117.176 642.148,139.343 611.5,162C 572.182,192.979 535.682,227.145 502,264.5C 482.363,286.464 463.863,309.298 446.5,333C 481.554,317.958 513.554,297.958 542.5,273C 543.448,272.517 544.448,272.351 545.5,272.5C 545.649,273.552 545.483,274.552 545,275.5C 522.655,303.525 495.822,326.025 464.5,343C 445.592,352.967 426.258,361.967 406.5,370C 423.161,369.503 439.161,365.836 454.5,359C 473.281,351.117 490.614,340.95 506.5,328.5C 506.833,329 507.167,329.5 507.5,330C 481.064,366.772 448.064,396.106 408.5,418C 386.671,429.581 364.338,440.081 341.5,449.5C 383.827,449.376 423.327,438.71 460,417.5C 460.5,417.667 461,417.833 461.5,418C 449.35,437.08 433.35,452.08 413.5,463C 382.145,479.45 348.812,489.45 313.5,493C 334.136,500.662 354.636,500.162 375,491.5C 375.5,491.833 376,492.167 376.5,492.5C 361.825,511.683 342.492,523.516 318.5,528C 303.639,530.795 288.639,532.128 273.5,532C 294.225,541.723 315.558,543.056 337.5,536C 358.654,528.179 377.488,516.679 394,501.5C 390.436,520.299 382.769,537.299 371,552.5C 355.052,570.151 335.219,577.318 311.5,574C 292.676,570.947 274.676,565.281 257.5,557C 224.41,540.455 191.077,524.455 157.5,509C 144.078,504.019 130.244,500.853 116,499.5C 108.443,500.173 100.943,501.173 93.5,502.5C 94.4808,462.271 102.647,423.604 118,386.5C 127.386,366.453 139.886,348.62 155.5,333C 157.044,331.813 158.711,331.48 160.5,332C 158.623,334.251 157.123,336.751 156,339.5C 148.357,380.432 158.523,416.265 186.5,447C 187.167,447.667 187.833,447.667 188.5,447C 160.332,379.494 166.832,315.66 208,255.5C 213.793,248.039 219.959,240.872 226.5,234C 227.759,233.018 229.092,232.685 230.5,233C 226.067,240.894 223.567,249.394 223,258.5C 218.768,287.31 221.768,315.31 232,342.5C 233.599,345.378 235.433,348.044 237.5,350.5C 228.593,313.688 233.76,278.688 253,245.5C 271.212,217.621 294.379,194.788 322.5,177C 324.167,176.333 325.833,176.333 327.5,177C 307.968,205.663 302.468,236.829 311,270.5C 311.862,237.916 321.528,208.249 340,181.5C 351.741,167.421 365.574,155.921 381.5,147C 382.635,146.251 383.635,146.417 384.5,147.5C 352.008,180.477 338.841,219.81 345,265.5C 349.021,228.822 362.355,196.156 385,167.5C 398.314,152.518 414.147,141.018 432.5,133C 442.632,130.587 442.965,131.92 433.5,137C 407.503,158.826 393.67,186.66 392,220.5C 401.657,198.39 415.823,179.556 434.5,164C 459.483,143.494 486.816,126.494 516.5,113C 584.575,81.3164 655.908,62.483 730.5,56.5 Z"/></g>
<g><path style="opacity:0.948" fill="#000000" d="M 402.5,508.5 C 419.993,530.792 425.159,555.792 418,583.5C 403.042,625.754 373.209,649.587 328.5,655C 304.127,656.24 281.46,650.573 260.5,638C 250.558,631.724 240.892,625.057 231.5,618C 209.5,599.333 187.5,580.667 165.5,562C 152.264,552.44 138.264,544.107 123.5,537C 96.1201,526.915 68.7868,527.081 41.5,537.5C 40.8333,537.167 40.1667,536.833 39.5,536.5C 66.1855,515.829 95.8522,509.995 128.5,519C 146.618,524.227 163.618,531.893 179.5,542C 206.007,559.506 231.674,578.173 256.5,598C 293.583,623.004 331.916,625.004 371.5,604C 406.75,580.414 417.083,548.581 402.5,508.5 Z"/></g>
<g><path style="opacity:0.936" fill="#000000" d="M 144.5,555.5 C 146.308,555.491 147.975,555.991 149.5,557C 159.607,564.473 169.44,572.306 179,580.5C 179.667,581.5 179.667,582.5 179,583.5C 162.796,603.048 143.629,618.882 121.5,631C 104.794,642.246 96.9608,658.079 98,678.5C 79.3193,688.675 62.8193,701.675 48.5,717.5C 47.2121,703.978 50.0455,691.312 57,679.5C 70.1078,673.374 77.4411,663.041 79,648.5C 86.8697,638.963 95.7031,630.463 105.5,623C 125.431,604.554 138.431,582.054 144.5,555.5 Z"/></g>
<g><path style="opacity:0.937" fill="#000000" d="M 468.5,662.5 C 470.225,662.843 470.725,663.843 470,665.5C 459.642,686.862 445.809,705.695 428.5,722C 408.92,737.972 386.42,745.805 361,745.5C 336.244,744.271 312.077,739.771 288.5,732C 260.073,722.524 231.407,713.858 202.5,706C 168.783,696.381 135.116,696.381 101.5,706C 87.5631,711.385 74.3965,718.218 62,726.5C 61.8333,726 61.6667,725.5 61.5,725C 96.1969,686.986 139.197,671.986 190.5,680C 199.242,681.282 207.908,682.948 216.5,685C 243.064,692.225 269.397,700.225 295.5,709C 318.416,716.517 341.916,720.683 366,721.5C 403.008,721.161 433.342,706.828 457,678.5C 461.088,673.314 464.921,667.98 468.5,662.5 Z"/></g>
</svg>
