<svg xmlns="http://www.w3.org/2000/svg" width="18" height="18" fill="undefined" style="color:undefined;vertical-align:middle;margin-right:0;margin-left:0" viewBox="0 0 24 24"><path fill="currentColor" d="M1.475 10.861c0-.307.149-.63.431-.863l8.65-7.263c.88-.739 2.025-.739 2.905 0l3.478 2.922v-1.27c0-.39.257-.64.647-.64h1.528c.382 0 .639.25.639.64v3.627l2.34 1.976c.283.232.432.548.432.88 0 .614-.448 1.012-1.087 1.012-.299 0-.598-.15-.847-.365l-8.118-6.815c-.307-.257-.63-.257-.921 0l-8.135 6.815c-.249.216-.548.365-.855.365-.664 0-1.087-.44-1.087-1.02Zm2.855 7.554V12.53l7.139-5.985c.332-.282.73-.29 1.07 0l7.13 5.985v5.885c0 1.262-.838 2.05-2.166 2.05H6.497c-1.329 0-2.167-.788-2.167-2.05Zm9.903-.091V13.11c0-.399-.25-.656-.648-.656h-3.162c-.399 0-.664.257-.664.656v5.213h4.474Z"/></svg>